<svg width="16" height="16" viewBox="0 0 16 16" fill="none" xmlns="http://www.w3.org/2000/svg">
<g clip-path="url(#clip0_1762_5569)">
<rect width="16" height="16" fill="white"/>
<path fill-rule="evenodd" clip-rule="evenodd" d="M8.5877 7.41159C9.06644 7.422 9.55872 7.43582 10.0276 7.44998C10.1692 7.45902 10.3123 7.46453 10.4559 7.47006C10.8418 7.48491 11.2315 7.49991 11.6057 7.58394C12.1917 7.75122 12.093 8.34704 11.5177 8.44167C10.9173 8.52927 10.391 8.5431 9.80889 8.5584H9.80888L9.80874 8.5584C9.64237 8.56277 9.47143 8.56726 9.29289 8.57363L9.04052 8.58026C8.88899 8.58431 8.73841 8.58833 8.58833 8.59167C8.57792 9.06917 8.56414 9.56002 8.55002 10.0276C8.54098 10.1692 8.53547 10.3123 8.52994 10.4559C8.51509 10.8418 8.50009 11.2315 8.41606 11.6057C8.24878 12.1917 7.65296 12.093 7.55833 11.5177C7.47073 10.9173 7.4569 10.391 7.4416 9.80888V9.80888L7.4416 9.80874C7.43723 9.64237 7.43274 9.47143 7.42637 9.29289L7.41974 9.04052L7.41973 9.04037C7.41573 8.89023 7.41174 8.74103 7.40841 8.59233C7.3646 8.59097 7.32072 8.58941 7.27678 8.58763C7.12556 8.58355 6.9763 8.58004 6.82798 8.57656L6.82779 8.57655L6.82761 8.57655C6.44246 8.5675 6.06364 8.55859 5.67336 8.54031C5.54564 8.52951 5.4156 8.52415 5.28494 8.51877C4.95592 8.50521 4.62299 8.49149 4.31329 8.39036C4.06394 8.29905 3.91727 8.0498 4.04994 7.82187C4.17395 7.61527 4.44263 7.55862 4.66864 7.53063C5.55205 7.44849 6.46184 7.43079 7.35412 7.41342H7.35413L7.40755 7.41238C7.40894 7.36724 7.41054 7.32205 7.41237 7.27678C7.41645 7.12555 7.41996 6.97628 7.42344 6.82795L7.42345 6.82778L7.42345 6.82761C7.4325 6.44246 7.44141 6.06364 7.45969 5.67336C7.47049 5.54564 7.47585 5.4156 7.48123 5.28494C7.49479 4.95592 7.50851 4.62299 7.60964 4.31329C7.70095 4.06394 7.9502 3.91727 8.17813 4.04994C8.38473 4.17395 8.44138 4.44263 8.46937 4.66864C8.55151 5.55204 8.56921 6.46183 8.58658 7.3541L8.5877 7.41159ZM0 7.98334C0 9.5117 2.28872 10.6588 5.07268 10.7908C5.53534 10.8128 6 10.8314 6 10.3929C6 9.99428 5.54664 9.92762 5.54664 9.92762C4.616 9.79498 3.08376 9.52837 2.28939 9.19643C1.09484 8.6972 0.996455 8.20063 0.996455 8C0.996455 7.79937 1.09484 7.3028 2.28939 6.80357C3.08376 6.47163 4.616 6.20569 5.54664 6.07238C5.54664 6.07238 6 6.00573 6 5.60714C6 5.16856 5.53601 5.18722 5.07268 5.20922C2.28872 5.34252 0 6.45497 0 7.98334ZM10.9273 10.7908C13.7113 10.6588 16 9.5117 16 7.98334V7.982C16 6.45364 13.7113 5.34119 10.9273 5.20922C10.464 5.18722 10 5.16856 10 5.60714C10 6.00573 10.4534 6.07238 10.4534 6.07238C11.384 6.20569 12.9162 6.47163 13.7106 6.80357C14.9052 7.3028 15.0035 7.79937 15.0035 8C15.0035 8.20063 14.9052 8.6972 13.7106 9.19643C12.9162 9.52837 11.384 9.79498 10.4534 9.92762C10.4534 9.92762 10 9.99428 10 10.3929C10 10.8314 10.4647 10.8128 10.9273 10.7908Z" fill="#1F1E1B"/>
</g>
<defs>
<clipPath id="clip0_1762_5569">
<rect width="16" height="16" fill="white"/>
</clipPath>
</defs>
</svg>
