<svg width="640" height="640" viewBox="0 0 640 640" fill="none" xmlns="http://www.w3.org/2000/svg">
<rect width="640" height="640" rx="320" fill="white"/>
<g filter="url(#filter0_f_468_374)">
<path d="M553.523 320.868C549.989 272.646 427.025 252.066 348.879 250.489C347.128 250.489 344.46 250.177 344.297 251.458C344.118 252.854 346.915 252.936 348.845 253.018C416.799 255.137 491.869 265.879 533.429 295.87C598.732 352.551 440.213 387.372 352.069 387.7C349.206 387.782 344.215 387.223 344.509 389.359C344.755 391.166 349.418 390.328 352.216 390.262C429.479 388.62 549.906 368.467 553.523 320.852H553.506L553.523 320.868Z" fill="black"/>
<path d="M85.5259 320.11C89.0602 368.333 212.023 388.913 290.154 390.489C291.921 390.489 294.572 390.802 294.735 389.521C294.915 388.124 292.118 388.043 290.186 387.96C222.233 385.842 147.163 375.1 105.603 345.109C40.3003 288.427 198.819 253.607 286.963 253.279C289.826 253.197 294.816 253.755 294.506 251.62C294.26 249.813 289.597 250.651 286.799 250.716C209.536 252.359 89.1092 272.512 85.4932 320.127H85.5095L85.5259 320.11Z" fill="black"/>
<path d="M319.511 214.421C320.804 214.421 321.852 261.905 321.852 320.491C321.852 379.078 320.804 426.561 319.511 426.561C318.219 426.561 317.172 379.078 317.172 320.491C317.172 261.905 318.219 214.421 319.511 214.421Z" fill="black"/>
<path d="M319.507 318.173C378.689 318.173 426.663 319.208 426.663 320.489C426.663 321.77 378.689 322.805 319.507 322.805C260.324 322.805 212.35 321.77 212.35 320.489C212.35 319.208 260.324 318.173 319.507 318.173Z" fill="black"/>
<path d="M560.018 321.348C558.185 345.771 532.005 365.184 482.265 379.031C445.857 389.148 397.295 395.783 352.38 396.736C351.872 396.753 351.301 396.802 350.694 396.834C347.521 397.048 339.044 397.672 338.063 390.232C337.768 388.065 338.439 385.896 339.879 384.286C342.628 381.215 346.882 381.264 350.302 381.297H352.036C428.596 381.002 530.075 356.792 541.283 327.178C542.395 324.238 545.783 315.287 529.356 300.932C505.499 283.801 454.825 262.81 348.535 259.46H348.289C345.753 259.345 341.907 259.164 339.453 256.257C338.145 254.68 337.539 252.676 337.817 250.623C338.21 247.601 340.239 244.037 347.472 244.037C347.651 244.054 347.831 244.054 348.011 244.054H348.992C394.448 244.957 443.764 251.691 480.906 261.989C531.564 276.049 558.17 295.709 559.985 320.411L560.035 320.888L559.985 321.364L560.018 321.348Z" fill="black"/>
<path d="M288.732 259.671H286.998C210.439 259.967 108.96 284.177 97.7513 313.79C96.6386 316.73 93.2517 325.682 109.679 340.037C133.536 357.167 184.21 378.158 290.5 381.509H290.746C293.281 381.624 297.11 381.805 299.581 384.712C300.907 386.288 301.495 388.309 301.217 390.361C300.792 393.466 298.648 397.128 291.024 396.948H290.042C244.587 396.044 195.271 389.31 158.128 379.013C107.454 364.936 80.8653 345.293 79.0327 320.59L79 320.114L79.0327 319.637C80.8653 295.214 107.045 275.817 156.787 261.971C193.193 251.853 241.74 245.218 286.671 244.282C287.162 244.265 287.751 244.216 288.356 244.183C289.044 244.117 289.976 244.068 291.007 244.068V244.002C294.82 244.002 300.203 244.889 300.972 250.72C301.266 252.888 300.595 255.056 299.156 256.666C296.407 259.737 292.136 259.688 288.732 259.655V259.671Z" fill="black"/>
<path d="M418.584 313.15C427.354 313.61 433.163 313.906 433.163 320.492C433.163 327.078 427.371 327.374 418.584 327.834C413.135 328.113 405.33 328.376 395.431 328.589C377.236 328.983 353.691 329.213 328.362 329.246C328.313 354.326 328.084 377.649 327.691 395.65C327.479 405.456 327.216 413.175 326.938 418.563C326.481 427.251 326.186 433 319.526 433C312.867 433 312.572 427.268 312.114 418.563C311.836 413.159 311.574 405.456 311.362 395.65C310.969 377.633 310.74 354.326 310.691 329.246C285.361 329.197 261.8 328.967 243.621 328.589C233.706 328.376 225.917 328.113 220.468 327.834C211.698 327.374 205.89 327.078 205.89 320.492C205.89 313.906 211.681 313.61 220.468 313.15C225.917 312.871 233.722 312.608 243.621 312.394C261.8 312 285.361 311.77 310.691 311.738C310.74 286.674 310.969 263.367 311.362 245.349C311.574 235.544 311.836 227.824 312.114 222.437C312.572 213.749 312.867 208 319.526 208C326.186 208 326.481 213.732 326.938 222.437C327.216 227.841 327.479 235.544 327.691 245.349C328.084 263.334 328.313 286.657 328.362 311.738C353.691 311.787 377.253 312.017 395.431 312.394C405.347 312.608 413.135 312.871 418.584 313.15Z" fill="black"/>
</g>
<defs>
<filter id="filter0_f_468_374" x="78" y="207" width="483.034" height="227" filterUnits="userSpaceOnUse" color-interpolation-filters="sRGB">
<feFlood flood-opacity="0" result="BackgroundImageFix"/>
<feBlend mode="normal" in="SourceGraphic" in2="BackgroundImageFix" result="shape"/>
<feGaussianBlur stdDeviation="0.5" result="effect1_foregroundBlur_468_374"/>
</filter>
</defs>
</svg>
