<?xml version="1.0" standalone="no"?>
<!DOCTYPE svg PUBLIC "-//W3C//DTD SVG 20010904//EN"
 "http://www.w3.org/TR/2001/REC-SVG-20010904/DTD/svg10.dtd">
<svg version="1.0" xmlns="http://www.w3.org/2000/svg"
 width="96." height="96.000000pt" viewBox="0 0 96.000000 96.000000"
 preserveAspectRatio="xMidYMid meet">

<g transform="translate(0.000000,96.000000) scale(0.100000,-0.100000)"
fill="#000000" stroke="none">
<path d="M470 565 l0 -75 -75 0 c-96 0 -98 -18 -2 -22 l72 -3 3 -72 c2 -40 7
-73 12 -73 5 0 10 33 12 73 l3 72 73 3 c95 4 93 22 -3 22 l-75 0 0 75 c0 43
-4 75 -10 75 -6 0 -10 -32 -10 -75z"/>
<path d="M330 580 c-114 -20 -183 -52 -193 -90 -8 -33 38 -75 104 -94 71 -22
209 -33 209 -17 0 6 -15 11 -35 11 -49 0 -183 29 -218 46 -88 46 7 109 196
129 31 4 57 11 57 16 0 10 -55 10 -120 -1z"/>
<path d="M510 580 c0 -5 4 -10 9 -10 88 0 264 -48 275 -75 16 -44 -59 -83
-191 -98 -113 -14 -125 -33 -15 -24 102 8 179 32 214 67 36 37 27 66 -31 98
-62 35 -261 67 -261 42z"/>
</g>
</svg>
