<svg width="1020" height="176" viewBox="0 0 1020 176" fill="none" xmlns="http://www.w3.org/2000/svg">
<g filter="url(#filter0_f_317_341)">
<path d="M468.697 136.999C444.644 136.999 431.682 123.069 430.613 106.192H443.575C444.644 115.032 450.925 125.748 468.697 125.748C485.4 125.748 491.948 117.577 491.948 109.942C491.948 101.906 488.073 96.6819 472.572 93.869L462.951 92.1277C442.64 88.5112 434.622 79.8048 434.622 65.3387C434.622 51.4084 446.782 38.5497 467.093 38.5497C491.948 38.5497 502.104 54.0873 503.573 67.7497H490.344C488.474 58.2396 482.46 49.5332 467.227 49.5332C452.662 49.5332 447.049 57.7038 447.049 64.2672C447.049 72.7057 451.459 76.5901 465.757 79.1351L475.512 80.8763C494.62 84.225 505.845 93.3332 505.845 109.005C505.845 125.212 491.547 136.999 468.697 136.999Z" fill="black"/>
<path d="M569.09 136.999C541.697 136.999 519.515 116.64 519.515 87.8415C519.515 59.0433 541.697 38.5497 569.09 38.5497C596.484 38.5497 618.532 59.0433 618.532 87.8415C618.532 116.64 596.484 136.999 569.09 136.999ZM533.412 87.8415C533.412 111.014 548.645 125.346 569.09 125.346C589.535 125.346 604.635 111.014 604.635 87.8415C604.635 64.669 589.535 50.2029 569.09 50.2029C548.645 50.2029 533.412 64.669 533.412 87.8415Z" fill="black"/>
<path d="M638.8 134.99V40.5589H679.957C696.126 40.5589 710.558 51.2745 710.558 69.2231C710.558 87.1718 696.928 97.6195 678.755 97.6195H651.896V134.99H638.8ZM651.896 86.2341H678.354C688.777 86.2341 696.794 80.3406 696.794 69.2231C696.794 57.8378 688.91 51.9442 678.22 51.9442H651.896V86.2341Z" fill="black"/>
<path d="M728.45 134.99V40.5589H741.412V80.6084H788.181V40.5589H801.277V134.99H788.181V92.2617H741.412V134.99H728.45Z" fill="black"/>
<path d="M871.185 136.999C843.792 136.999 821.61 116.64 821.61 87.8415C821.61 59.0433 843.792 38.5497 871.185 38.5497C898.579 38.5497 920.627 59.0433 920.627 87.8415C920.627 116.64 898.579 136.999 871.185 136.999ZM835.507 87.8415C835.507 111.014 850.741 125.346 871.185 125.346C891.63 125.346 906.73 111.014 906.73 87.8415C906.73 64.669 891.63 50.2029 871.185 50.2029C850.741 50.2029 835.507 64.669 835.507 87.8415Z" fill="black"/>
<path d="M940.896 134.99V40.5589H960.806L1005.7 118.783V40.5589H1018.8V134.99H1000.76L953.991 53.2837V134.99H940.896Z" fill="black"/>
</g>
<g filter="url(#filter1_f_317_341)">
<path d="M367.964 88.2847C365.231 50.9926 270.139 35.0774 209.706 33.8581C208.352 33.8581 206.289 33.6167 206.163 34.6075C206.024 35.6871 208.187 35.7506 209.68 35.8141C262.231 37.4526 320.285 45.7595 352.425 68.9528C402.926 112.786 280.338 139.714 212.173 139.968C209.959 140.031 206.099 139.599 206.327 141.251C206.517 142.648 210.123 142 212.287 141.949C272.037 140.679 365.167 125.094 367.964 88.272H367.951L367.964 88.2847Z" fill="black"/>
<path d="M6.04664 87.6986C8.77981 124.991 103.871 140.906 164.292 142.125C165.659 142.125 167.709 142.367 167.835 141.376C167.974 140.296 165.811 140.233 164.317 140.169C111.767 138.531 53.7126 130.224 21.5726 107.031C-28.9278 63.1971 93.6599 36.2696 161.825 36.0156C164.039 35.9521 167.898 36.384 167.658 34.7327C167.468 33.3356 163.862 33.9833 161.698 34.0341C101.948 35.3043 8.81777 50.8892 6.02134 87.7113H6.03399L6.04664 87.6986Z" fill="black"/>
<path d="M186.996 5.96575C187.996 5.96575 188.806 42.6862 188.806 87.993C188.806 133.3 187.996 170.02 186.996 170.02C185.997 170.02 185.187 133.3 185.187 87.993C185.187 42.6862 185.997 5.96575 186.996 5.96575Z" fill="black"/>
<path d="M186.991 86.2009C232.759 86.2009 269.859 87.0012 269.859 87.9919C269.859 88.9826 232.759 89.7828 186.991 89.7828C141.223 89.7828 104.123 88.9826 104.123 87.9919C104.123 87.0012 141.223 86.2009 186.991 86.2009Z" fill="black"/>
<path d="M372.987 88.6554C371.57 107.543 351.324 122.556 312.858 133.264C284.703 141.088 247.148 146.219 212.414 146.956C212.021 146.969 211.579 147.007 211.11 147.032C208.656 147.197 202.101 147.68 201.342 141.926C201.114 140.25 201.633 138.573 202.746 137.328C204.872 134.953 208.162 134.991 210.807 135.016H212.148C271.354 134.788 349.831 116.066 358.499 93.1645C359.359 90.8909 361.979 83.9685 349.275 72.8672C330.826 59.6194 291.638 43.3867 209.44 40.7956H209.25C207.289 40.7067 204.315 40.5669 202.417 38.3188C201.405 37.0994 200.937 35.5498 201.152 33.9621C201.456 31.625 203.025 28.8687 208.618 28.8687C208.757 28.8814 208.896 28.8814 209.035 28.8814H209.794C244.946 29.58 283.084 34.7877 311.807 42.7516C350.983 53.6242 371.558 68.8281 372.962 87.9314L373 88.2998L372.962 88.6681L372.987 88.6554Z" fill="black"/>
<path d="M163.193 40.9593H161.852C102.646 41.1879 24.1687 59.9102 15.501 82.8113C14.6405 85.0848 12.0213 92.0073 24.7254 103.109C43.1743 116.356 82.3624 132.589 164.56 135.18H164.75C166.711 135.269 169.672 135.409 171.583 137.657C172.608 138.876 173.063 140.439 172.848 142.026C172.519 144.427 170.861 147.259 164.965 147.12H164.206C129.054 146.421 90.9162 141.213 62.1926 133.25C23.0045 122.364 2.44251 107.173 1.02531 88.0697L1 87.7014L1.02531 87.333C2.44251 68.4457 22.6882 53.445 61.155 42.7375C89.3092 34.9133 126.852 29.7818 161.599 29.0578C161.979 29.0451 162.434 29.007 162.902 28.9816C163.434 28.9308 164.155 28.8927 164.952 28.8927V28.8419C167.901 28.8419 172.064 29.5278 172.658 34.0369C172.886 35.7135 172.367 37.3901 171.254 38.6349C169.128 41.0101 165.825 40.972 163.193 40.9466V40.9593Z" fill="black"/>
<path d="M263.612 82.316C270.394 82.6717 274.886 82.9003 274.886 87.9936C274.886 93.087 270.407 93.3156 263.612 93.6713C259.398 93.8872 253.362 94.0904 245.707 94.2556C231.636 94.5604 213.428 94.7382 193.84 94.7636C193.802 114.159 193.625 132.195 193.321 146.116C193.157 153.699 192.954 159.669 192.739 163.835C192.385 170.554 192.157 175 187.007 175C181.857 175 181.629 170.567 181.275 163.835C181.06 159.656 180.857 153.699 180.693 146.116C180.389 132.183 180.212 114.159 180.174 94.7636C160.586 94.7255 142.365 94.5477 128.307 94.2556C120.639 94.0904 114.616 93.8872 110.402 93.6713C103.62 93.3156 99.128 93.087 99.128 87.9936C99.128 82.9003 103.607 82.6717 110.402 82.316C114.616 82.1001 120.652 81.8969 128.307 81.7317C142.365 81.4269 160.586 81.2491 180.174 81.2237C180.212 61.8409 180.389 43.8173 180.693 29.8836C180.857 22.3007 181.06 16.3309 181.275 12.1648C181.629 5.44559 181.857 1 187.007 1C192.157 1 192.385 5.43289 192.739 12.1648C192.954 16.3436 193.157 22.3007 193.321 29.8836C193.625 43.7919 193.802 61.8282 193.84 81.2237C213.428 81.2618 231.649 81.4396 245.707 81.7317C253.375 81.8969 259.398 82.1001 263.612 82.316Z" fill="black"/>
</g>
<defs>
<filter id="filter0_f_317_341" x="429.613" y="37.5497" width="590.187" height="100.45" filterUnits="userSpaceOnUse" color-interpolation-filters="sRGB">
<feFlood flood-opacity="0" result="BackgroundImageFix"/>
<feBlend mode="normal" in="SourceGraphic" in2="BackgroundImageFix" result="shape"/>
<feGaussianBlur stdDeviation="0.5" result="effect1_foregroundBlur_317_341"/>
</filter>
<filter id="filter1_f_317_341" x="0" y="0" width="374" height="176" filterUnits="userSpaceOnUse" color-interpolation-filters="sRGB">
<feFlood flood-opacity="0" result="BackgroundImageFix"/>
<feBlend mode="normal" in="SourceGraphic" in2="BackgroundImageFix" result="shape"/>
<feGaussianBlur stdDeviation="0.5" result="effect1_foregroundBlur_317_341"/>
</filter>
</defs>
</svg>
